<?xml version="1.0" encoding="iso-8859-1"?>
<!-- Uploaded to: SVG Repo, www.svgrepo.com, Generator: SVG Repo Mixer Tools -->
<svg fill="#000000" height="800px" width="800px" version="1.1" id="Capa_1" xmlns="http://www.w3.org/2000/svg" xmlns:xlink="http://www.w3.org/1999/xlink" 
	 viewBox="0 0 490.399 490.399" xml:space="preserve">
<g>
	<path d="M202.431,296.462c-37.831,0-68.606,30.778-68.606,68.606c0,37.827,30.774,68.6,68.606,68.6
		c37.822,0,68.597-30.773,68.597-68.6C271.028,327.241,240.253,296.462,202.431,296.462z M202.431,413.252
		c-26.567,0-48.189-21.618-48.189-48.184c0-26.572,21.623-48.19,48.189-48.19c26.568,0,48.181,21.618,48.181,48.19
		C250.612,391.635,228.999,413.252,202.431,413.252z"/>
	<path d="M451.535,200.448c1.923-6.062,37.771-91.926-189.301-171.072C213.737,12.472,164.979,5.65,122.571,5.65
		C61.352,5.65,20.649,23.305,10.89,54.083L1.598,83.378c-5.453,17.211,3.499,35.459,19.968,40.677c0,0,73.031,24.875,78.275,23.343
		c0,0,0,0,0.01,0c13.936,0,26.248-9.307,30.635-23.158c6.908-21.782,33.615-35.853,68.047-35.853
		c14.076,0,28.491,2.303,42.836,6.849c25.381,8.045,47.043,22.066,61.019,39.472c13.009,16.214,17.586,33.301,12.89,48.11
		c-5.453,17.211,3.499,35.459,19.968,40.677c0,0,71.408,22.84,74.477,23.1c28.109,2.38,34.85-24.2,34.85-24.2
		c19.112,21.438,28.192,51.491,24.016,81.709c-4.775,34.547-28.601,65.696-60.69,79.343c-4.821,2.045-9.643,3.495-14.575,4.379
		c-0.51-21.124-8.286-41.485-22.061-57.558L255.197,221.043v-31.567h-20.416v25.77h-64.708v-25.77h-20.416v31.563
		c0,0-92.997,86.123-115.31,108.436c-24.702,24.702-22.868,63.397-22.868,63.397c0,50.662,41.222,91.878,91.883,91.878h198.13
		c45.285,0,83.023-32.934,90.524-76.107c8.158-0.973,16.028-3.075,23.869-6.406c38.569-16.403,66.138-53.985,72.922-95.336
		C499.653,240.785,451.535,200.448,451.535,200.448z M410.591,225.967l-69.184-21.932c-5.732-1.819-8.723-8.568-6.669-15.047
		c6.828-21.528,0.996-45.344-16.429-67.057c-16.458-20.515-41.6-36.909-70.779-46.156c-16.339-5.179-32.817-7.805-48.997-7.805
		c-43.504,0-77.857,19.664-87.507,50.098c-1.665,5.249-6.26,8.913-11.175,8.913c-0.996,0-72.124-22.386-72.124-22.386
		c-5.732-1.819-8.723-8.568-6.669-15.048l9.291-29.294c6.789-21.408,41.261-34.188,92.222-34.188
		c40.343,0,86.509,7.87,133.503,22.769c118.939,37.702,189.229,103.716,177.924,139.38l-9.292,29.294
		C422.704,223.809,416.333,227.796,410.591,225.967z M372.959,392.871c0,39.402-32.06,71.462-71.467,71.462h-198.13
		c-39.408,0-71.467-32.06-71.467-71.462c0,0-2.4-25.051,16.847-48.912l115.17-108.297h77.029l115.17,108.297
		C374.406,364.996,372.959,392.871,372.959,392.871z"/>
</g>
</svg>